<?xml version="1.0" encoding="UTF-8" standalone="no"?>
<!DOCTYPE svg PUBLIC "-//W3C//DTD SVG 1.1//EN"
 "http://www.w3.org/Graphics/SVG/1.1/DTD/svg11.dtd">
<!-- Generated by graphviz version 2.36.0 (20140111.2315)
 -->
<!-- Title: %3 Pages: 1 -->
<svg width="125pt" height="332pt"
 viewBox="0.00 0.00 125.00 332.00" xmlns="http://www.w3.org/2000/svg" xmlns:xlink="http://www.w3.org/1999/xlink">
<g id="graph0" class="graph" transform="scale(1 1) rotate(0) translate(4 328)">
<title>%3</title>
<polygon fill="white" stroke="none" points="-4,4 -4,-328 121,-328 121,4 -4,4"/>
<!-- x -->
<g id="node1" class="node"><title>x</title>
<ellipse fill="none" stroke="black" cx="18" cy="-90" rx="18" ry="18"/>
<text text-anchor="middle" x="18" y="-86.3" font-family="Times,serif" font-size="14.00">x</text>
</g>
<!-- lca -->
<g id="node5" class="node"><title>lca</title>
<ellipse fill="darkgreen" stroke="darkgreen" cx="45" cy="-162" rx="18" ry="18"/>
</g>
<!-- x&#45;&gt;lca -->
<g id="edge1" class="edge"><title>x&#45;&gt;lca</title>
<path fill="none" stroke="black" d="M24.2622,-107.235C27.4996,-115.629 31.5253,-126.066 35.1661,-135.505"/>
<polygon fill="black" stroke="black" points="31.9075,-136.782 38.7718,-144.853 38.4385,-134.263 31.9075,-136.782"/>
</g>
<!-- y -->
<g id="node2" class="node"><title>y</title>
<ellipse fill="none" stroke="black" cx="72" cy="-18" rx="18" ry="18"/>
<text text-anchor="middle" x="72" y="-14.3" font-family="Times,serif" font-size="14.00">y</text>
</g>
<!-- f -->
<g id="node3" class="node"><title>f</title>
<ellipse fill="none" stroke="black" cx="72" cy="-90" rx="18" ry="18"/>
</g>
<!-- y&#45;&gt;f -->
<g id="edge2" class="edge"><title>y&#45;&gt;f</title>
<path fill="none" stroke="black" d="M72,-36.3034C72,-44.0173 72,-53.2875 72,-61.8876"/>
<polygon fill="black" stroke="black" points="68.5001,-61.8956 72,-71.8957 75.5001,-61.8957 68.5001,-61.8956"/>
</g>
<!-- f&#45;&gt;lca -->
<g id="edge3" class="edge"><title>f&#45;&gt;lca</title>
<path fill="none" stroke="black" d="M65.7378,-107.235C62.5004,-115.629 58.4747,-126.066 54.8339,-135.505"/>
<polygon fill="black" stroke="black" points="51.5615,-134.263 51.2282,-144.853 58.0925,-136.782 51.5615,-134.263"/>
</g>
<!-- z -->
<g id="node4" class="node"><title>z</title>
<ellipse fill="none" stroke="black" cx="99" cy="-234" rx="18" ry="18"/>
</g>
<!-- w -->
<g id="node7" class="node"><title>w</title>
<ellipse fill="lightgreen" stroke="lightgreen" cx="72" cy="-306" rx="18" ry="18"/>
</g>
<!-- z&#45;&gt;w -->
<g id="edge6" class="edge"><title>z&#45;&gt;w</title>
<path fill="none" stroke="black" d="M92.7378,-251.235C89.5004,-259.629 85.4747,-270.066 81.8339,-279.505"/>
<polygon fill="black" stroke="black" points="78.5615,-278.263 78.2282,-288.853 85.0925,-280.782 78.5615,-278.263"/>
</g>
<!-- a -->
<g id="node6" class="node"><title>a</title>
<ellipse fill="lightgreen" stroke="lightgreen" cx="45" cy="-234" rx="18" ry="18"/>
</g>
<!-- lca&#45;&gt;a -->
<g id="edge4" class="edge"><title>lca&#45;&gt;a</title>
<path fill="none" stroke="black" d="M45,-180.303C45,-188.017 45,-197.288 45,-205.888"/>
<polygon fill="black" stroke="black" points="41.5001,-205.896 45,-215.896 48.5001,-205.896 41.5001,-205.896"/>
</g>
<!-- a&#45;&gt;w -->
<g id="edge5" class="edge"><title>a&#45;&gt;w</title>
<path fill="none" stroke="black" d="M51.2622,-251.235C54.4996,-259.629 58.5253,-270.066 62.1661,-279.505"/>
<polygon fill="black" stroke="black" points="58.9075,-280.782 65.7718,-288.853 65.4385,-278.263 58.9075,-280.782"/>
</g>
</g>
</svg>
