<?xml version="1.0" encoding="UTF-8" standalone="no"?>
<!-- Created with Inkscape (http://www.inkscape.org/) -->

<svg
   xmlns:svg="http://www.w3.org/2000/svg"
   xmlns="http://www.w3.org/2000/svg"
   xmlns:xlink="http://www.w3.org/1999/xlink"
   version="1.1"
   width="288"
   height="288"
   id="svg2">
  <defs
     id="defs6" />
  <g
     id="g3675"
     style="fill:none;stroke:#ff0000;stroke-width:1px">
    <path
       d="M 20,-5.5159495 20,293.51595"
       id="path2818" />
    <path
       d="m 81.536999,144 c 0,16.99297 -13.775525,30.7685 -30.768499,30.7685 C 33.775526,174.7685 20,160.99297 20,144 c 0,-16.99297 13.775526,-30.7685 30.7685,-30.7685 16.992974,0 30.768499,13.77553 30.768499,30.7685 z"
       id="path2864" />
    <path
       d="m 88.504609,144 c 0,18.90151 -15.322706,34.22423 -34.224225,34.22423 -18.90152,0 -34.224227,-15.32272 -34.224227,-34.22423 0,-18.90151 15.322707,-34.22423 34.224227,-34.22423 18.901519,0 34.224225,15.32272 34.224225,34.22423 z"
       id="use3639" />
    <path
       d="m 97.111657,144 c 0,21.25912 -17.23393,38.49307 -38.493064,38.49307 -21.259135,0 -38.493066,-17.23395 -38.493066,-38.49307 0,-21.25912 17.233931,-38.49307 38.493066,-38.49307 21.259134,0 38.493064,17.23395 38.493064,38.49307 z"
       id="use3643" />
    <path
       d="m 108.04124,144 c 0,24.25291 -19.66088,43.91382 -43.91381,43.91382 -24.252932,0 -43.913814,-19.66091 -43.913814,-43.91382 0,-24.25291 19.660882,-43.91382 43.913814,-43.91382 24.25293,0 43.91381,19.66091 43.91381,43.91382 z"
       id="use3647" />
    <path
       d="m 122.91838,144 c 0,28.328 -22.964401,51.29244 -51.292428,51.29244 -28.32803,0 -51.292431,-22.96444 -51.292431,-51.29244 0,-28.328 22.964401,-51.292438 51.292431,-51.292438 28.328027,0 51.292428,22.964438 51.292428,51.292438 z"
       id="use3651" />
    <path
       d="m 143.95783,144 c 0,34.09105 -27.63628,61.72738 -61.727367,61.72738 -34.091088,0 -61.72737,-27.63633 -61.72737,-61.72738 0,-34.09105 27.636282,-61.727379 61.72737,-61.727379 34.091087,0 61.727367,27.636329 61.727367,61.727379 z"
       id="use3655" />
    <path
       d="m 174.68338,144 c 0,42.54144 -34.48668,77.02819 -77.028174,77.02819 -42.541489,0 -77.028174,-34.48675 -77.028174,-77.02819 0,-42.54144 34.486685,-77.028186 77.028174,-77.028186 42.541494,0 77.028174,34.486746 77.028174,77.028186 z"
       id="use3659" />
    <path
       d="m 226.57402,144 c 0,56.82427 -46.06522,102.88958 -102.88956,102.88958 -56.824338,0 -102.889558,-46.06531 -102.889558,-102.88958 0,-56.824273 46.06522,-102.889575 102.889558,-102.889575 56.82434,0 102.88956,46.065302 102.88956,102.889575 z"
       id="use3663" />
    <path
       d="m 330.71659,144 c 0,85.51271 -69.32182,154.83466 -154.83463,154.83466 -85.512809,0 -154.834627,-69.32195 -154.834627,-154.83466 0,-85.512713 69.321818,-154.834654 154.834627,-154.834654 85.51281,0 154.83463,69.321941 154.83463,154.834654 z"
       id="use3667" />
    <path
       d="m 654.31351,144 c 0,174.73473 -141.65064,316.38564 -316.38558,316.38564 C 163.19299,460.38564 21.542353,318.73473 21.542353,144 c 0,-174.734748 141.650637,-316.38563 316.385577,-316.38563 174.73494,0 316.38558,141.650882 316.38558,316.38563 z"
       id="use3671" />
  </g>
  <g
     id="g3735"
     style="fill:none;stroke:#0000ff;stroke-width:1">
    <path
       d="m 293.51595,144 -299.0319,0"
       id="use2858" />
    <g
       id="g3726">
      <path
         d="m 81.729827,81.287004 c 0,34.092436 -27.637371,61.729826 -61.729827,61.729826 -34.092435,0 -61.729827,-27.63739 -61.729827,-61.729826 0,-34.092435 27.637392,-61.729827 61.729827,-61.729827 34.092456,0 61.729827,27.637392 61.729827,61.729827 z"
         id="path2864-1" />
      <path
         d="m 97.092976,65.799417 c 0,42.577263 -34.515684,77.092973 -77.092976,77.092973 -42.577266,0 -77.092976,-34.51571 -77.092976,-77.092973 0,-42.577266 34.51571,-77.092976 77.092976,-77.092976 42.577292,0 77.092976,34.51571 77.092976,77.092976 z"
         id="use3710" />
      <path
         d="m 122.97244,39.752112 c 0,56.87009 -46.102311,102.972428 -102.97244,102.972428 -56.870094,0 -102.972437,-46.102338 -102.972437,-102.972428 0,-56.870095 46.102343,-102.972437 102.972437,-102.972437 56.870129,0 102.97244,46.102342 102.97244,102.972437 z"
         id="use3714" />
      <path
         d="m 175.5159,-13.046479 c 0,85.889034 -69.62681,155.515889 -155.515901,155.515889 -85.88904,0 -155.515899,-69.626855 -155.515899,-155.515889 0,-85.889041 69.626859,-155.515901 155.515899,-155.515901 85.889091,0 155.515901,69.62686 155.515901,155.515901 z"
         id="use3718" />
      <path
         d="m 331.79333,-169.77416 c 0,172.1986432 -139.59457,311.7933 -311.793332,311.7933 -172.198658,0 -311.793328,-139.5946568 -311.793328,-311.7933 0,-172.19867 139.59467,-311.79334 311.793328,-311.79334 172.198762,0 311.793332,139.59467 311.793332,311.79334 z"
         id="use3722" />
    </g>
    <use
       transform="matrix(1,0,0,-1,0,287.5165)"
       id="use3733"
       x="0"
       y="0"
       width="288"
       height="288"
       xlink:href="#g3726" />
  </g>
</svg>
